<svg xmlns="http://www.w3.org/2000/svg" width="24" height="24" fill="none" viewBox="0 0 24 24" id="octahedron">
  <path fill="#000" fill-rule="evenodd" d="M12.4096 3.45706C12.2106 3.1727 11.7894 3.1727 11.5904 3.45706L5.81104 11.7133C5.69053 11.8854 5.69053 12.1146 5.81104 12.2867L11.5904 20.5429C11.7894 20.8273 12.2106 20.8273 12.4096 20.5429L18.189 12.2867C18.3095 12.1146 18.3095 11.8854 18.189 11.7133L12.4096 3.45706ZM10.7712 2.8836C11.3683 2.03052 12.6317 2.03053 13.2289 2.8836L19.0082 11.1398C19.3697 11.6563 19.3697 12.3437 19.0082 12.8602L13.2288 21.1164C12.6317 21.9695 11.3683 21.9695 10.7712 21.1164L4.99181 12.8602C4.63027 12.3437 4.63027 11.6563 4.99181 11.1398L10.7712 2.8836Z" clip-rule="evenodd"></path>
  <path fill="#000" fill-rule="evenodd" d="M12.1085 2.5119C12.378 2.57181 12.548 2.8389 12.4881 3.10846L10.5845 11.6746C10.5369 11.8889 10.5369 12.1111 10.5845 12.3254L12.4881 20.8915C12.548 21.1611 12.378 21.4282 12.1085 21.4881C11.8389 21.548 11.5718 21.378 11.5119 21.1085L9.60832 12.5423C9.52895 12.1851 9.52895 11.8149 9.60832 11.4577L11.5119 2.89153C11.5718 2.62197 11.8389 2.452 12.1085 2.5119Z" clip-rule="evenodd"></path>
  <path fill="#000" fill-rule="evenodd" d="M5 12C5 11.7239 5.22386 11.5 5.5 11.5H18.5C18.7761 11.5 19 11.7239 19 12C19 12.2761 18.7761 12.5 18.5 12.5H5.5C5.22386 12.5 5 12.2761 5 12Z" clip-rule="evenodd"></path>
</svg>
