<svg width="24" height="24" xmlns="http://www.w3.org/2000/svg" fill="none">

 <g>
  <title>Layer 1</title>
  <path id="svg_1" clip-rule="evenodd" d="m12.4096,3.45706c-0.199,-0.28436 -0.6202,-0.28436 -0.8192,0l-5.77936,8.25624c-0.12051,0.1721 -0.12051,0.4013 0,0.5734l5.77936,8.2562c0.199,0.2844 0.6202,0.2844 0.8192,0l5.7794,-8.2562c0.1205,-0.1721 0.1205,-0.4013 0,-0.5734l-5.7794,-8.25624zm-1.6384,-0.57346c0.5971,-0.85308 1.8605,-0.85307 2.4577,0l5.7793,8.2562c0.3615,0.5165 0.3615,1.2039 0,1.7204l-5.7794,8.2562c-0.5971,0.8531 -1.8605,0.8531 -2.4576,0l-5.77939,-8.2562c-0.36154,-0.5165 -0.36154,-1.2039 0,-1.7204l5.77939,-8.2562z" fill-rule="evenodd" fill="#ffffff"/>
  <path id="svg_2" clip-rule="evenodd" d="m12.1085,2.5119c0.2695,0.05991 0.4395,0.327 0.3796,0.59656l-1.9036,8.56614c-0.0476,0.2143 -0.0476,0.4365 0,0.6508l1.9036,8.5661c0.0599,0.2696 -0.1101,0.5367 -0.3796,0.5966c-0.2696,0.0599 -0.5367,-0.1101 -0.5966,-0.3796l-1.90358,-8.5662c-0.07937,-0.3572 -0.07937,-0.7274 0,-1.0846l1.90358,-8.56617c0.0599,-0.26956 0.327,-0.43953 0.5966,-0.37963z" fill-rule="evenodd" fill="#ffffff"/>
  <path id="svg_3" clip-rule="evenodd" d="m5,12c0,-0.2761 0.22386,-0.5 0.5,-0.5l13,0c0.2761,0 0.5,0.2239 0.5,0.5c0,0.2761 -0.2239,0.5 -0.5,0.5l-13,0c-0.27614,0 -0.5,-0.2239 -0.5,-0.5z" fill-rule="evenodd" fill="#ffffff"/>
 </g>
</svg>